<?xml version="1.0" encoding="UTF-8" standalone="no"?>
<!-- Created with Inkscape (http://www.inkscape.org/) -->

<svg
   xmlns:dc="http://purl.org/dc/elements/1.1/"
   xmlns:cc="http://creativecommons.org/ns#"
   xmlns:rdf="http://www.w3.org/1999/02/22-rdf-syntax-ns#"
   xmlns:svg="http://www.w3.org/2000/svg"
   xmlns="http://www.w3.org/2000/svg"
   xmlns:xlink="http://www.w3.org/1999/xlink"
   xmlns:sodipodi="http://sodipodi.sourceforge.net/DTD/sodipodi-0.dtd"
   xmlns:inkscape="http://www.inkscape.org/namespaces/inkscape"
   width="1600px"
   height="1200px"
   id="svg2985"
   version="1.1"
   inkscape:version="0.48.0 r9654"
   inkscape:export-filename="/home/josiah/Pictures/test.png"
   inkscape:export-xdpi="90"
   inkscape:export-ydpi="90"
   sodipodi:docname="New document 2">
  <defs
     id="defs2987">
    <filter
       inkscape:collect="always"
       id="filter3775"
       x="-0.31363636"
       width="1.6272727"
       y="-0.31363636"
       height="1.6272727">
      <feGaussianBlur
         inkscape:collect="always"
         stdDeviation="83.636364"
         id="feGaussianBlur3777" />
    </filter>
    <linearGradient
       gradientUnits="userSpaceOnUse"
       id="path1082_2_"
       y2="129.3468"
       x2="112.49853"
       y1="6.1372099"
       x1="112.49854"
       gradientTransform="translate(287,-83)">
      <stop
         id="stop193"
         offset="0"
         style="stop-color:#ffffff;stop-opacity:0" />
      <stop
         id="stop195"
         offset="1"
         style="stop-color:#ffffff;stop-opacity:0.27450982;" />
      <midPointStop
         id="midPointStop197"
         style="stop-color:#FFFFFF"
         offset="0" />
      <midPointStop
         id="midPointStop199"
         style="stop-color:#FFFFFF"
         offset="0.5" />
      <midPointStop
         id="midPointStop201"
         style="stop-color:#000000"
         offset="1" />
    </linearGradient>
    <filter
       inkscape:collect="always"
       id="filter4356">
      <feGaussianBlur
         inkscape:collect="always"
         stdDeviation="7.7575764"
         id="feGaussianBlur4358" />
    </filter>
    <linearGradient
       inkscape:collect="always"
       xlink:href="#path1082_2_-2"
       id="linearGradient2240"
       gradientUnits="userSpaceOnUse"
       gradientTransform="matrix(-0.53055878,0,0,0.530529,452.79727,446.88279)"
       x1="541.33502"
       y1="104.50665"
       x2="606.91248"
       y2="303.14029" />
    <linearGradient
       gradientUnits="userSpaceOnUse"
       id="path1082_2_-2"
       y2="129.3468"
       x2="112.49853"
       y1="6.1372099"
       x1="112.49854"
       gradientTransform="translate(287,-83)">
      <stop
         id="stop193-2"
         offset="0"
         style="stop-color:#ffffff;stop-opacity:0" />
      <stop
         id="stop195-9"
         offset="1"
         style="stop-color:#ffffff;stop-opacity:0.27450982;" />
      <midPointStop
         id="midPointStop197-2"
         style="stop-color:#FFFFFF"
         offset="0" />
      <midPointStop
         id="midPointStop199-8"
         style="stop-color:#FFFFFF"
         offset="0.5" />
      <midPointStop
         id="midPointStop201-1"
         style="stop-color:#000000"
         offset="1" />
    </linearGradient>
    <linearGradient
       inkscape:collect="always"
       xlink:href="#path1082_2_-2"
       id="linearGradient4390"
       gradientUnits="userSpaceOnUse"
       gradientTransform="matrix(-0.53055878,0,0,0.530529,452.79727,446.88279)"
       x1="541.33502"
       y1="104.50665"
       x2="606.91248"
       y2="303.14029" />
    <linearGradient
       inkscape:collect="always"
       xlink:href="#path1082_2_-21"
       id="linearGradient2240-2"
       gradientUnits="userSpaceOnUse"
       gradientTransform="matrix(-0.3937741,0,0,0.393752,978.34969,416.9815)"
       x1="541.33502"
       y1="104.50665"
       x2="606.91248"
       y2="303.14029" />
    <linearGradient
       gradientUnits="userSpaceOnUse"
       id="path1082_2_-21"
       y2="129.3468"
       x2="112.49853"
       y1="6.1372099"
       x1="112.49854"
       gradientTransform="translate(287,-83)">
      <stop
         id="stop193-9"
         offset="0"
         style="stop-color:#ffffff;stop-opacity:0" />
      <stop
         id="stop195-0"
         offset="1"
         style="stop-color:#ffffff;stop-opacity:0.27450982;" />
      <midPointStop
         id="midPointStop197-1"
         style="stop-color:#FFFFFF"
         offset="0" />
      <midPointStop
         id="midPointStop199-2"
         style="stop-color:#FFFFFF"
         offset="0.5" />
      <midPointStop
         id="midPointStop201-8"
         style="stop-color:#000000"
         offset="1" />
    </linearGradient>
    <linearGradient
       y2="303.14029"
       x2="606.91248"
       y1="104.50665"
       x1="541.33502"
       gradientTransform="matrix(-0.3937741,0,0,0.393752,978.34969,416.9815)"
       gradientUnits="userSpaceOnUse"
       id="linearGradient4486"
       xlink:href="#path1082_2_-21"
       inkscape:collect="always" />
  </defs>
  <sodipodi:namedview
     id="base"
     pagecolor="#ffffff"
     bordercolor="#666666"
     borderopacity="1.0"
     inkscape:pageopacity="0.0"
     inkscape:pageshadow="2"
     inkscape:zoom="0.3"
     inkscape:cx="511.66667"
     inkscape:cy="515"
     inkscape:current-layer="layer1"
     inkscape:document-units="px"
     showgrid="false"
     inkscape:window-width="1215"
     inkscape:window-height="598"
     inkscape:window-x="146"
     inkscape:window-y="61"
     inkscape:window-maximized="0" />
  <metadata
     id="metadata2990">
    <rdf:RDF>
      <cc:Work
         rdf:about="">
        <dc:format>image/svg+xml</dc:format>
        <dc:type
           rdf:resource="http://purl.org/dc/dcmitype/StillImage" />
        <dc:title></dc:title>
      </cc:Work>
    </rdf:RDF>
  </metadata>
  <g
     inkscape:groupmode="layer"
     id="layer2"
     inkscape:label="Layer"
     style="display:none">
    <path
       sodipodi:type="arc"
       style="opacity:0.36538463;fill:#1793df;fill-opacity:0.94117647;stroke:none;display:inline;filter:url(#filter3775)"
       id="path2993"
       sodipodi:cx="1053.3334"
       sodipodi:cy="823.33331"
       sodipodi:rx="320"
       sodipodi:ry="320"
       d="m 1373.3334,823.33331 a 320,320 0 1 1 -640.00003,0 320,320 0 1 1 640.00003,0 z"
       transform="translate(-253.33337,-223.33331)"
       inkscape:export-xdpi="90"
       inkscape:export-ydpi="90" />
  </g>
  <g
     id="layer1"
     inkscape:label="Layer 1"
     inkscape:groupmode="layer"
     style="display:inline">
    <path
       inkscape:connector-curvature="0"
       style="opacity:0.60377358;fill:#000000;fill-opacity:1;fill-rule:evenodd;stroke:none;filter:url(#filter4356)"
       d="m 799.99997,472 c -11.39482,27.93705 -18.31337,46.23716 -31,73.34375 7.7785,8.24521 17.33826,17.81175 32.84375,28.65625 -16.66992,-6.85958 -28.03357,-13.7285 -36.53125,-20.875 -16.23646,33.87989 -41.69085,82.12139 -93.31249,174.875 40.5627,-23.41756 72.00759,-37.86167 101.31249,-43.375 -1.25376,-5.40435 -1.9235,-11.27752 -1.875,-17.375 l 0.0313,-1.28125 c 0.64379,-25.99398 14.16934,-45.98224 30.1875,-44.625 16.01815,1.35723 28.48754,23.53727 27.84375,49.53125 -0.12127,4.89622 -0.6905,9.60082 -1.65625,13.96875 28.98953,5.67316 60.13787,20.05292 100.15625,43.15625 -7.89193,-14.52962 -14.96051,-27.61983 -21.6875,-40.09375 -10.59609,-8.21269 -21.64301,-18.89743 -44.1875,-30.46875 15.4958,4.02645 26.60184,8.6825 35.25,13.875 C 828.97982,543.97267 823.45419,527.04038 799.99997,472 z"
       id="path2518"
       transform="matrix(1.0793038,0,0,1.0793038,-63.44304,-47.58228)" />
    <g
       transform="matrix(1.3473684,0,0,1.3473684,-230.40019,-114.94491)"
       id="g4460">
      <path
         inkscape:connector-curvature="0"
         transform="matrix(0.7421875,0,0,0.7421875,669.75015,435.62318)"
         id="path2518-3"
         d="M 128,0 C 116.60518,27.937051 109.68663,46.237163 97,73.34375 104.7785,81.588957 114.33826,91.155503 129.84375,102 113.17383,95.140423 101.81018,88.271496 93.3125,81.125 77.076039,115.00489 51.621645,163.24639 0,256 c 40.562707,-23.41756 72.007597,-37.86167 101.3125,-43.375 -1.25376,-5.40435 -1.923505,-11.27752 -1.875,-17.375 l 0.03125,-1.28125 c 0.64379,-25.99398 14.16934,-45.98224 30.1875,-44.625 16.01815,1.35723 28.48754,23.53727 27.84375,49.53125 -0.12127,4.89622 -0.6905,9.60082 -1.65625,13.96875 C 184.83328,218.51691 215.98162,232.89667 256,256 c -7.89193,-14.52962 -14.96051,-27.61983 -21.6875,-40.09375 -10.59609,-8.21269 -21.64301,-18.89743 -44.1875,-30.46875 15.4958,4.02645 26.60184,8.6825 35.25,13.875 C 156.97985,71.972668 151.45422,55.040376 128,0 z"
         style="fill:#1793d1;fill-opacity:1;fill-rule:evenodd;stroke:none" />
      <path
         inkscape:connector-curvature="0"
         sodipodi:nodetypes="ccc"
         id="path2522"
         d="M 818.22607,548.55277 C 777.04464,492.65769 767.49922,447.60796 765.0814,436.85262 c 21.96737,50.6686 21.81733,51.28995 53.14467,111.70015 z"
         style="fill:#ffffff;fill-opacity:0.16568047;fill-rule:evenodd;stroke:none" />
      <path
         inkscape:connector-curvature="0"
         id="path2520"
         d="m 765.09805,436.43495 c -1.05641,2.59705 -2.08559,5.1172 -3.06152,7.51465 -1.08115,2.65585 -2.10928,5.19128 -3.13111,7.677 -1.02174,2.48575 -2.03439,4.91156 -3.03833,7.30591 -1.00398,2.39446 -2.01068,4.76169 -3.03833,7.14355 -1.02758,2.38177 -2.06156,4.78845 -3.15429,7.23633 -1.09273,2.44796 -2.23335,4.94504 -3.43262,7.53784 -1.19937,2.59282 -2.45641,5.27815 -3.80371,8.09448 -0.18662,0.39008 -0.41312,0.83402 -0.60303,1.22925 5.75521,6.09563 12.84133,13.14976 24.28345,21.15234 -12.34021,-5.07792 -20.76511,-10.15751 -27.06665,-15.44677 -0.32717,0.66791 -0.61387,1.26431 -0.95093,1.94824 -0.44365,0.90024 -0.97632,1.92315 -1.43799,2.85278 -0.80967,1.66032 -1.65574,3.36576 -2.52807,5.12574 -0.33524,0.66652 -0.62948,1.24283 -0.97413,1.92504 -5.50733,11.05265 -12.33962,24.28304 -21.12915,40.72754 24.09557,-13.57581 50.08533,-33.16242 97.29615,-16.30493 -2.36708,-4.48319 -4.54319,-8.68756 -6.58692,-12.64038 -2.0437,-3.95294 -3.94246,-7.6555 -5.70556,-11.15601 -1.76297,-3.50043 -3.39212,-6.80069 -4.917,-9.92675 -1.52486,-3.12599 -2.93832,-6.0765 -4.26757,-8.90625 -1.32934,-2.8297 -2.58106,-5.55264 -3.75733,-8.16407 -1.17634,-2.6114 -2.29708,-5.11315 -3.36304,-7.58422 -1.06607,-2.4712 -2.08657,-4.89718 -3.08471,-7.30591 -0.99823,-2.4088 -1.97267,-4.81178 -2.94556,-7.23633 -0.34772,-0.86638 -0.69553,-1.7689 -1.0437,-2.64404 -2.66339,-6.25269 -5.3982,-12.73163 -8.55835,-20.15503 z"
         style="fill:url(#linearGradient4486);fill-opacity:1;fill-rule:evenodd;stroke:none" />
    </g>
  </g>
</svg>
